<svg xmlns="http://www.w3.org/2000/svg" version="1.1" xmlns:xlink="http://www.w3.org/1999/xlink" xmlns:svgjs="http://svgjs.dev/svgjs" width="2000" height="2250" viewBox="0 0 2000 2250"><g transform="matrix(1,0,0,1,0.0022017081398644223,0)"><svg viewBox="0 0 320 360" data-background-color="#97978d" preserveAspectRatio="xMidYMid meet" height="2250" width="2000" xmlns="http://www.w3.org/2000/svg" xmlns:xlink="http://www.w3.org/1999/xlink"><g id="tight-bounds" transform="matrix(1,0,0,1,0.00010353528136874957,0)"><svg viewBox="0 0 320 360" height="360" width="320"><g><svg></svg></g><g><svg viewBox="0 0 320 360" height="360" width="320"><g><path xmlns="http://www.w3.org/2000/svg" d="M307.925 179.999l6.575-11.387c11.322-19.607 4.604-44.679-15.003-56.001l-11.387-6.575v-13.151c0-22.639-18.354-40.994-40.994-40.994h-13.151l-6.575-11.387c-11.322-19.607-36.393-26.325-56.001-15.003l-11.39 6.572-11.387-6.576c-19.607-11.318-44.679-4.6-56.001 15.007l-6.575 11.387h-13.151c-22.639 0-40.994 18.354-40.994 40.994v13.151l-11.387 6.575c-19.607 11.322-26.325 36.393-15.003 56.001l6.572 11.387-6.576 11.387c-11.318 19.607-4.6 44.679 15.007 56l11.387 6.576v13.15c0 22.639 18.354 40.994 40.994 40.994h13.151l6.575 11.387c11.322 19.607 36.393 26.325 56.001 15.003l11.387-6.571 11.387 6.575c19.607 11.322 44.679 4.604 56-15.003l6.576-11.387h13.15c22.639 0 40.994-18.354 40.994-40.994v-13.151l11.387-6.575c19.607-11.322 26.325-36.393 15.003-56.001zM297.702 115.716c8.655 4.996 14.842 13.062 17.428 22.713 2.586 9.65 1.261 19.734-3.735 28.384l-5.538 9.596-17.747-30.74v-35.494zM251.155 271.155l-57.791 33.365h-66.731l-57.791-33.365-33.365-57.791v-66.731l33.365-57.791 57.791-33.365h66.731l57.791 33.365 33.365 57.791v66.731zM284.517 220.539v31.351l-27.151 15.676zM247.566 277.366l-15.676 27.151h-31.351zM187.15 308.106l-27.151 15.676-27.151-15.676zM119.459 304.517h-31.352l-15.676-27.151zM62.632 267.566l-27.151-15.676v-31.351zM31.891 207.15l-15.675-27.151 15.675-27.151zM35.481 139.459v-31.352l27.151-15.676zM72.431 82.632l15.676-27.151h31.352zM132.848 51.891l27.151-15.675 27.151 15.675zM200.539 55.481h31.351l15.676 27.151zM257.366 92.431l27.151 15.676v31.352zM288.106 152.848l15.676 27.151-15.676 27.151zM247.112 55.481c9.992 0 19.384 3.889 26.452 10.956 7.063 7.063 10.956 16.46 10.957 26.452v11.079l-30.741-17.747-17.747-30.74zM173.18 28.606c8.655-4.996 18.735-6.322 28.385-3.735 9.65 2.586 17.716 8.777 22.712 17.428l5.538 9.596h-35.494l-30.741-17.747zM95.716 42.295c4.996-8.655 13.062-14.842 22.713-17.428 9.65-2.586 19.734-1.261 28.384 3.736l9.596 5.537-30.74 17.747h-35.494zM35.481 92.885c0-9.992 3.889-19.384 10.956-26.452 7.063-7.063 16.46-10.956 26.452-10.956h11.079l-17.747 30.74-30.74 17.747zM8.606 166.817c-4.996-8.655-6.322-18.735-3.735-28.385 2.586-9.65 8.777-17.716 17.428-22.712l9.596-5.538v35.495l-17.747 30.74zM22.295 244.281c-8.655-4.996-14.842-13.062-17.428-22.712-2.586-9.65-1.261-19.734 3.736-28.385l5.537-9.596 17.747 30.74v35.495zM72.885 304.517c-9.992 0-19.384-3.889-26.452-10.957-7.063-7.063-10.956-16.46-10.956-26.451v-11.08l30.74 17.747 17.747 30.741zM146.817 331.391c-8.655 4.996-18.735 6.322-28.385 3.735-9.65-2.586-17.716-8.777-22.712-17.428l-5.538-9.596h35.495l30.74 17.747zM224.281 317.702c-4.996 8.655-13.062 14.842-22.712 17.428-9.65 2.586-19.734 1.261-28.385-3.735l-9.596-5.538 30.74-17.747h35.495zM284.517 267.112c0 9.992-3.889 19.384-10.957 26.452-7.063 7.063-16.46 10.956-26.451 10.957h-11.08l17.747-30.741 30.741-17.747zM315.13 221.565c-2.586 9.65-8.777 17.716-17.428 22.712l-9.596 5.538v-35.494l17.747-30.741 5.538 9.596c4.996 8.658 6.326 18.739 3.739 28.389z" fill="#ffffff" fill-rule="nonzero" stroke="none" stroke-width="1" stroke-linecap="butt" stroke-linejoin="miter" stroke-miterlimit="10" stroke-dasharray="" stroke-dashoffset="0" font-family="none" font-weight="none" font-size="none" text-anchor="none" style="mix-blend-mode: normal" data-fill-palette-color="tertiary"></path></g><g transform="matrix(1,0,0,1,80.6780372325081,90)"><svg viewBox="0 0 158.6439255349838 180" height="180" width="158.6439255349838"><g><svg viewBox="0 0 192 217.846349196515" height="180" width="158.6439255349838"><g transform="matrix(1,0,0,1,0,142.60640154888674)"><svg viewBox="0 0 192 75.23994764762827" height="75.23994764762827" width="192"><g id="textblocktransform"><svg viewBox="0 0 192 75.23994764762827" height="75.23994764762827" width="192" id="textblock"><g><svg viewBox="0 0 192 40.5808325266215" height="40.5808325266215" width="192"><g transform="matrix(1,0,0,1,0,0)"><svg width="192" viewBox="1.899999976158142 -32.29999923706055 154.94000244140625 32.75" height="40.5808325266215" data-palette-color="#ffffff"><path d="M16.1-32.3Q21.15-32.3 24.85-29.9L24.85-29.9 24.05-26.25 23.6-26.15Q20.25-28.95 15.9-28.95L15.9-28.95Q11.15-28.95 8.6-25.68 6.05-22.4 6.05-16.1L6.05-16.1Q6.05-9.75 8.6-6.4 11.15-3.05 15.8-3.05L15.8-3.05Q18-3.05 20.18-3.85 22.35-4.65 24.15-6.1L24.15-6.1 24.65-5.85 24.3-2.05Q19.95 0.35 15.45 0.35L15.45 0.35Q9 0.35 5.45-3.83 1.9-8 1.9-15.75L1.9-15.75Q1.9-23.7 5.6-28 9.3-32.3 16.1-32.3L16.1-32.3ZM43.1-32.05L53.8 0 49.7 0 48.95-3.2 47.15-8.7 39.95-8.85 33.45-8.7 31.5-3.4 30.7 0 26.7 0 38.45-32.05 43.1-32.05ZM40.3-12L46.05-12.1 40.85-27.9 40.5-27.9 34.7-12.1 40.3-12ZM72.59-12.95Q75.9-7.5 80.9-0.95L80.9-0.95 80.84-0.45Q79.05 0.25 77.15 0.45L77.15 0.45 76.59 0.1Q72.5-6.05 69.25-11.9L69.25-11.9 63.4-11.9 63.4-10 63.6 0 59.55 0 59.8-9.65 59.55-32.05 69.34-32.1Q74.05-32.1 76.62-29.73 79.2-27.35 79.2-22.95L79.2-22.95Q79.2-19.65 77.47-17.03 75.75-14.4 72.59-12.95L72.59-12.95ZM63.6-28.65L63.45-15.3 69.45-15.15Q75.05-16.75 75.05-22.6L75.05-22.6Q75.05-25.65 73.4-27.18 71.75-28.7 68.45-28.8L68.45-28.8 63.6-28.65ZM105.34-3.5L105.59-3.1 105.29 0 87.29 0 87.54-9.65 87.29-32.05 105.34-32.05 105.54-31.65 105.24-28.55 97.69-28.7 91.34-28.6 91.24-18.1 97.24-18 102.54-18.15 102.84-17.8 102.49-14.7 96.89-14.8 91.19-14.75 91.14-10 91.29-3.35 97.64-3.3 105.34-3.5ZM129.44-3.5L129.69-3.1 129.39 0 111.39 0 111.64-9.65 111.39-32.05 129.44-32.05 129.64-31.65 129.34-28.55 121.79-28.7 115.44-28.6 115.34-18.1 121.34-18 126.64-18.15 126.94-17.8 126.59-14.7 120.99-14.8 115.29-14.75 115.24-10 115.39-3.35 121.74-3.3 129.44-3.5ZM148.54-12.95Q151.84-7.5 156.84-0.95L156.84-0.95 156.79-0.45Q154.99 0.25 153.09 0.45L153.09 0.45 152.54 0.1Q148.44-6.05 145.19-11.9L145.19-11.9 139.34-11.9 139.34-10 139.54 0 135.49 0 135.74-9.65 135.49-32.05 145.29-32.1Q149.99-32.1 152.56-29.73 155.14-27.35 155.14-22.95L155.14-22.95Q155.14-19.65 153.41-17.03 151.69-14.4 148.54-12.95L148.54-12.95ZM139.54-28.65L139.39-15.3 145.39-15.15Q150.99-16.75 150.99-22.6L150.99-22.6Q150.99-25.65 149.34-27.18 147.69-28.7 144.39-28.8L144.39-28.8 139.54-28.65Z" opacity="1" transform="matrix(1,0,0,1,0,0)" fill="#ffffff" class="wordmark-text-0" data-fill-palette-color="primary" id="text-0"></path></svg></g></svg></g><g transform="matrix(1,0,0,1,0,50.160993146176196)"><svg viewBox="0 0 192 25.078954501452085" height="25.078954501452085" width="192"><g transform="matrix(1,0,0,1,0,0)"><svg width="192" viewBox="1.850000023841858 -37.20000076293945 385.8500061035156 50.400001525878906" height="25.078954501452085" data-palette-color="#ffffff"><path d="M14.5-32.25L6.05-32.25Q5.25-32.25 4.67-31.75 4.1-31.25 3.9-30.5L3.9-30.5 1.85-30.5Q1.9-31.85 3.05-33L3.05-33Q4.3-34.25 5.9-34.25L5.9-34.25 28.55-34.25 28.55-32.25 16.6-32.25 16.6-0.05 14.5-0.05 14.5-32.25ZM47.27 0.45Q43.72 0.45 41-1.15 38.27-2.75 36.75-5.65 35.22-8.55 35.22-12.3L35.22-12.3Q35.22-16.1 36.75-19.03 38.27-21.95 41.02-23.6 43.77-25.25 47.32-25.25L47.32-25.25Q50.87-25.25 53.62-23.63 56.37-22 57.9-19.07 59.42-16.15 59.42-12.35L59.42-12.35Q59.42-8.6 57.9-5.68 56.37-2.75 53.62-1.15 50.87 0.45 47.27 0.45L47.27 0.45ZM47.32-1.45Q50.27-1.45 52.55-2.85 54.82-4.25 56.07-6.78 57.32-9.3 57.32-12.55L57.32-12.55Q57.32-15.75 56.07-18.2 54.82-20.65 52.55-22 50.27-23.35 47.32-23.35L47.32-23.35Q44.37-23.35 42.1-21.98 39.82-20.6 38.57-18.1 37.32-15.6 37.32-12.35L37.32-12.35Q37.32-9.15 38.57-6.68 39.82-4.2 42.1-2.83 44.37-1.45 47.32-1.45L47.32-1.45ZM82.74-25.25Q86.19-25.25 88.59-23.55 90.99-21.85 92.19-18.98 93.39-16.1 93.39-12.55L93.39-12.55Q93.39-8.7 91.97-5.78 90.54-2.85 87.82-1.2 85.09 0.45 81.29 0.45L81.29 0.45Q79.29 0.45 74.84-0.15L74.84-0.15 74.84 13 72.74 13 72.74-18.05Q72.74-20.25 72.29-21.53 71.84-22.8 70.89-24L70.89-24 72.29-25.35Q73.34-24.35 74.02-23.05 74.69-21.75 74.79-20.35L74.79-20.35Q75.84-22.9 77.92-24.08 79.99-25.25 82.74-25.25L82.74-25.25ZM81.04-1.45Q85.99-1.45 88.64-4.42 91.29-7.4 91.29-12.25L91.29-12.25Q91.29-15.25 90.29-17.78 89.29-20.3 87.37-21.83 85.44-23.35 82.89-23.35L82.89-23.35Q80.94-23.35 79.17-22.48 77.39-21.6 76.19-20.03 74.99-18.45 74.84-16.45L74.84-16.45 74.84-1.95Q79.84-1.45 81.04-1.45L81.04-1.45ZM137.68 0.45Q134.13 0.45 131.41-1.15 128.68-2.75 127.16-5.65 125.63-8.55 125.63-12.3L125.63-12.3Q125.63-16.1 127.16-19.03 128.68-21.95 131.43-23.6 134.18-25.25 137.73-25.25L137.73-25.25Q141.28-25.25 144.03-23.63 146.78-22 148.31-19.07 149.83-16.15 149.83-12.35L149.83-12.35Q149.83-8.6 148.31-5.68 146.78-2.75 144.03-1.15 141.28 0.45 137.68 0.45L137.68 0.45ZM137.73-1.45Q140.68-1.45 142.96-2.85 145.23-4.25 146.48-6.78 147.73-9.3 147.73-12.55L147.73-12.55Q147.73-15.75 146.48-18.2 145.23-20.65 142.96-22 140.68-23.35 137.73-23.35L137.73-23.35Q134.78-23.35 132.51-21.98 130.23-20.6 128.98-18.1 127.73-15.6 127.73-12.35L127.73-12.35Q127.73-9.15 128.98-6.68 130.23-4.2 132.51-2.83 134.78-1.45 137.73-1.45L137.73-1.45ZM163.36-25.3Q163.36-31.55 165.21-34.38 167.06-37.2 171.16-37.2L171.16-37.2Q174.51-37.2 176.31-35.3 178.11-33.4 178.11-29.9L178.11-29.9Q178.11-25.65 175.48-23.35 172.86-21.05 168.26-21.2L168.26-21.2 165.46-21.3 165.46-12.2 173.01-12.2 173.01-10.3 165.46-10.3 165.46 13.2 163.36 13.2 163.36-25.3ZM168.26-23.1Q171.81-23.1 173.91-24.95 176.01-26.8 176.01-29.95L176.01-29.95Q176.01-32.4 174.66-33.85 173.31-35.3 171.06-35.3L171.06-35.3Q165.46-35.3 165.46-25.45L165.46-25.45 165.46-23.1 168.26-23.1ZM225.55 1.1Q220.7 1.1 216.8-1.33 212.9-3.75 210.67-7.85 208.45-11.95 208.45-16.85L208.45-16.85Q208.45-21.75 210.77-26 213.1-30.25 217.1-32.77 221.1-35.3 225.85-35.3L225.85-35.3Q230.5-35.3 233.85-33.43 237.2-31.55 237.2-28L237.2-28Q237.2-26.15 236.1-24.88 235-23.6 233.25-23.6L233.25-23.6Q231.95-23.6 230.95-24.3L230.95-24.3 232.2-25.9Q232.9-25.6 233.3-25.6L233.3-25.6Q234.15-25.6 234.75-26.35 235.35-27.1 235.35-28.05L235.35-28.05Q235.35-29.6 233.85-30.8 232.35-32 230.15-32.63 227.95-33.25 225.9-33.25L225.9-33.25Q221.65-33.25 218.12-30.95 214.6-28.65 212.57-24.88 210.55-21.1 210.55-16.85L210.55-16.85Q210.55-12.6 212.47-8.93 214.4-5.25 217.85-3.08 221.3-0.9 225.6-0.9L225.6-0.9Q229.25-0.9 232.5-2.55 235.75-4.2 237.8-7L237.8-7 239.4-5.9Q236.9-2.4 233.25-0.65 229.6 1.1 225.55 1.1L225.55 1.1ZM274.62-2.4L276.22-1.4Q275.72-0.55 274.84-0.1 273.97 0.35 273.02 0.35L273.02 0.35Q271.22 0.35 270.17-0.68 269.12-1.7 268.97-3.7L268.97-3.7Q267.92-1.8 265.77-0.68 263.62 0.45 260.92 0.45L260.92 0.45Q257.47 0.45 255.09-1.28 252.72-3 251.54-5.88 250.37-8.75 250.37-12.25L250.37-12.25Q250.37-16.15 251.82-19.07 253.27-22 255.99-23.63 258.72-25.25 262.47-25.25L262.47-25.25Q263.62-25.25 265.39-25.13 267.17-25 268.52-24.8L268.52-24.8 271.02-24.8 271.02-3.9Q271.02-2.7 271.57-2.13 272.12-1.55 273.02-1.55L273.02-1.55Q273.47-1.55 273.94-1.8 274.42-2.05 274.62-2.4L274.62-2.4ZM268.92-9.3L268.92-23Q268.12-22.95 265.32-23.15L265.32-23.15 262.27-23.25Q257.52-23.25 254.99-20.15 252.47-17.05 252.47-12.35L252.47-12.35Q252.47-9.55 253.44-7.08 254.42-4.6 256.34-3.08 258.27-1.55 260.97-1.55L260.97-1.55Q263.42-1.55 265.32-2.75 267.22-3.95 268.17-5.85L268.17-5.85Q268.92-7.35 268.92-9.3L268.92-9.3ZM297.54-25.25Q298.24-25.25 300.14-24.9L300.14-24.9 300.14-23Q298.69-23.25 297.64-23.25L297.64-23.25Q294.79-23.25 293.04-21.85L293.04-21.85Q292.29-21.2 291.44-20.18 290.59-19.15 289.99-18L289.99-18 289.99-0.05 287.89-0.05 287.89-18.1Q287.89-20.3 287.44-21.58 286.99-22.85 286.04-24.05L286.04-24.05 287.44-25.4Q288.54-24.35 289.22-23.03 289.89-21.7 289.99-20.25L289.99-20.25Q290.64-21.55 291.54-22.6 292.44-23.65 293.34-24.2L293.34-24.2Q295.04-25.25 297.54-25.25L297.54-25.25ZM320.71 0.45Q315.16 0.45 312.31-2.83 309.46-6.1 309.46-11.45L309.46-11.45Q309.46-14.9 310.66-18.05 311.86-21.2 314.36-23.23 316.86-25.25 320.51-25.25L320.51-25.25Q324.31-25.25 326.86-23.2 329.41-21.15 329.41-17.75L329.41-17.75Q329.41-14.15 326.44-12.2 323.46-10.25 318.36-10.25L318.36-10.25 311.71-10.25Q312.11-6.05 314.41-3.75 316.71-1.45 320.71-1.45L320.71-1.45Q322.96-1.45 324.84-2.1 326.71-2.75 328.71-4L328.71-4 329.76-2.55Q325.51 0.45 320.71 0.45L320.71 0.45ZM318.36-12.15Q322.36-12.15 324.84-13.5 327.31-14.85 327.31-17.8L327.31-17.8Q327.31-20.5 325.31-21.93 323.31-23.35 320.66-23.35L320.66-23.35Q317.61-23.35 315.54-21.53 313.46-19.7 312.49-17.07 311.51-14.45 311.61-12.15L311.61-12.15 318.36-12.15ZM352.98 0.45Q347.43 0.45 344.58-2.83 341.73-6.1 341.73-11.45L341.73-11.45Q341.73-14.9 342.93-18.05 344.13-21.2 346.63-23.23 349.13-25.25 352.78-25.25L352.78-25.25Q356.58-25.25 359.13-23.2 361.68-21.15 361.68-17.75L361.68-17.75Q361.68-14.15 358.71-12.2 355.73-10.25 350.63-10.25L350.63-10.25 343.98-10.25Q344.38-6.05 346.68-3.75 348.98-1.45 352.98-1.45L352.98-1.45Q355.23-1.45 357.11-2.1 358.98-2.75 360.98-4L360.98-4 362.03-2.55Q357.78 0.45 352.98 0.45L352.98 0.45ZM350.63-12.15Q354.63-12.15 357.11-13.5 359.58-14.85 359.58-17.8L359.58-17.8Q359.58-20.5 357.58-21.93 355.58-23.35 352.93-23.35L352.93-23.35Q349.88-23.35 347.81-21.53 345.73-19.7 344.76-17.07 343.78-14.45 343.88-12.15L343.88-12.15 350.63-12.15ZM385.1-25.25Q385.8-25.25 387.7-24.9L387.7-24.9 387.7-23Q386.25-23.25 385.2-23.25L385.2-23.25Q382.35-23.25 380.6-21.85L380.6-21.85Q379.85-21.2 379-20.18 378.15-19.15 377.55-18L377.55-18 377.55-0.05 375.45-0.05 375.45-18.1Q375.45-20.3 375-21.58 374.55-22.85 373.6-24.05L373.6-24.05 375-25.4Q376.1-24.35 376.78-23.03 377.45-21.7 377.55-20.25L377.55-20.25Q378.2-21.55 379.1-22.6 380-23.65 380.9-24.2L380.9-24.2Q382.6-25.25 385.1-25.25L385.1-25.25Z" opacity="1" transform="matrix(1,0,0,1,0,0)" fill="#ffffff" class="slogan-text-1" data-fill-palette-color="secondary" id="text-1"></path></svg></g></svg></g></svg></g></svg></g><g transform="matrix(1,0,0,1,36.672,0)"><svg viewBox="0 0 118.656 118.656" height="118.656" width="118.656"><g><svg viewBox="0 0 118.656 118.656" height="118.656" width="118.656"><g transform="matrix(1,0,0,1,33.45867283301499,31.360512590509675)"><svg viewBox="0 0 51.73865433397003 55.934974818980656" height="55.934974818980656" width="51.73865433397003"><g><svg xmlns="http://www.w3.org/2000/svg" xmlns:xlink="http://www.w3.org/1999/xlink" version="1.1" x="0" y="0" viewBox="9.739177703857422 9.299999237060547 72.4608154296875 78.33782958984375" style="enable-background:new 0 0 100 100;" xml:space="preserve" height="55.934974818980656" width="51.73865433397003" class="icon-s-0" data-fill-palette-color="accent" id="s-0"><g fill="#ffffff" data-fill-palette-color="accent"><g fill="#ffffff" data-fill-palette-color="accent"><g fill="#ffffff" data-fill-palette-color="accent"><path class="" d="M53.2 74.1c0 0.1 0 0.1-0.1 0.2 0 0.1 0 0.1-0.1 0.2L53 74.5 46 87c-0.3 0.6-1.1 0.8-1.7 0.5l-4.7-2.9c-0.6-0.4-0.8-1.2-0.4-1.8l4.2-7.4 2.8-14 8.5 5.7L53.2 74.1C53.2 74 53.2 74 53.2 74.1z" fill="#ffffff" data-fill-palette-color="accent"></path><path class="" d="M53.2 22.9c-1.9-1.4-3.1-3.6-3.1-6.1 0-4.2 3.4-7.5 7.5-7.5 4.2 0 7.5 3.4 7.5 7.5 0 3.4-2.2 6.3-5.3 7.2-0.7 0.2-1.4 0.3-2.2 0.3C56 24.4 54.5 23.8 53.2 22.9z" fill="#ffffff" data-fill-palette-color="accent"></path><path class="" d="M68 84.4c-0.2 0.7-0.8 1.1-1.5 1l-5.3-1.3c-0.7-0.2-1.1-0.8-0.9-1.5l3.1-14L43 55c-0.3-0.4-0.4-1-0.1-1.5 0-0.1 0-0.3 0-0.4l2.7-17.5-8.5 4.2-3.2 9.4c-0.2 0.7-0.9 1-1.6 0.8l-3.7-1.3c-0.7-0.2-1-0.9-0.8-1.6l4.6-13.4c0.1-0.4 0.4-0.7 0.8-0.8 0.1-0.1 0.2-0.1 0.2-0.2l14.2-6.9c0.1-0.1 0.3-0.1 0.4-0.1h0.1 0.2c0 0 0.1 0 0.1 0l3.7 0.6c0 0 0.1 0.1 0.1 0.1l4.5 4.9c0.4 0.3 1 0.1 1.2-0.3l1-3.7 4.1 0.6c0.1 0 0.2 0.1 0.3 0.1 0.2 0.1 0.3 0.2 0.5 0.3l9.9 9.9c0 0 0.1 0.1 0.1 0.1h7.1c0.7 0 1.3 0.6 1.3 1.3v3.4c0 0.7-0.6 1.3-1.3 1.3H69c-0.4 0-0.8-0.2-1-0.5L62.2 38l-3.4 15.6 13.3 8.9c0.5 0.3 0.7 1 0.5 1.6L68 84.4z" fill="#ffffff" data-fill-palette-color="accent"></path><path class="" d="M34.6 52.5c0.2 0.1 0.4 0.3 0.3 0.6l-0.8 2.2c-0.1 0.2-0.3 0.4-0.6 0.3l-9.3-3.4c-0.2-0.1-0.4-0.3-0.3-0.6l0.8-2.2c0.1-0.2 0.3-0.4 0.6-0.3l2.6 1 3.7 1.4L34.6 52.5z" fill="#ffffff" data-fill-palette-color="accent"></path><path class="" d="M53 74.4c0-0.1 0.1-0.1 0.1-0.2 0 0.1-0.1 0.2-0.2 0.3L53 74.4z" fill="#ffffff" data-fill-palette-color="accent"></path><path class="" d="M48.2 25.6C48.2 25.6 48.2 25.6 48.2 25.6l-0.2 0C48.1 25.6 48.1 25.6 48.2 25.6z" fill="#ffffff" data-fill-palette-color="accent"></path><path class="" d="M46.9 57.7l-3.6-2.4c-0.1-0.1-0.2-0.1-0.2-0.2L46.9 57.7z" fill="#ffffff" data-fill-palette-color="accent"></path><path class="" d="M40.9 59.9c0.5 0.3 0.8 0.9 0.6 1.5l-4.8 13.2c-0.2 0.7-1 1-1.6 0.8l-24.5-8.9c-0.7-0.2-1-1-0.8-1.6l4.8-13.2c0.2-0.7 1-1 1.6-0.8l7.5 2.7 17 6.2C40.8 59.8 40.8 59.9 40.9 59.9z" fill="#ffffff" data-fill-palette-color="accent"></path></g></g></g></svg></g></svg></g><g><path d="M4.794 33.262c0.883-2.079 2.143-3.672 3.781-4.779v0l2.042 1.458-0.053 0.3c-1.739 0.892-2.989 2.236-3.751 4.029v0c-0.829 1.951-0.795 3.74 0.102 5.367 0.906 1.623 2.656 2.985 5.25 4.087v0c2.618 1.113 4.838 1.437 6.659 0.973 1.83-0.467 3.152-1.659 3.965-3.573v0c0.384-0.903 0.6-1.874 0.647-2.912 0.054-1.036-0.059-2.05-0.338-3.042v0l0.286-0.243 2.252 1.214c0.228 2.208-0.052 4.239-0.84 6.093v0c-1.128 2.654-2.864 4.349-5.208 5.085-2.342 0.729-5.107 0.416-8.295-0.938v0c-3.273-1.391-5.472-3.227-6.599-5.509-1.123-2.273-1.09-4.81 0.1-7.61z" fill="#ffffff" data-fill-palette-color="accent"></path><path d="M22.987 11.819l19.21 12.056-2.129 1.75-1.75-1.336-3.277-2.088-3.793 2.992-3.31 2.849 1.251 3.574 1.03 2.108-2.068 1.7-7.574-21.623zM30.088 23.409l2.932-2.5-9.431-5.979-0.183 0.15 3.731 10.666z" fill="#ffffff" data-fill-palette-color="accent"></path><path d="M52.779 12.382c2.004 2.024 4.436 4.199 7.298 6.525v0l0.04 0.335c-0.707 0.495-1.463 0.887-2.267 1.175v0l-0.421-0.142c-2.423-2.248-4.649-4.476-6.676-6.685v0l-3.813 0.917 0.3 1.248 1.693 6.491-2.641 0.635-1.351-6.339-3.678-14.578 6.389-1.566c2.042-0.491 3.748-0.356 5.116 0.405 1.37 0.768 2.285 2.109 2.745 4.024v0c0.345 1.434 0.28 2.811-0.195 4.13-0.474 1.326-1.32 2.468-2.539 3.425zM44.438 3.548l1.998 8.733 3.943-0.836c2.265-1.283 3.091-3.198 2.479-5.746v0c-0.319-1.325-0.916-2.231-1.791-2.719-0.877-0.493-2.038-0.59-3.483-0.29v0z" fill="#ffffff" data-fill-palette-color="accent"></path><path d="M77.207 21.333l0.106 0.297-0.645 1.991-11.792-2.621 1.57-6.289 3.098-14.711 11.821 2.628 0.077 0.29-0.645 1.992-4.925-1.196-4.18-0.859-1.596 6.86 3.919 0.942 3.493 0.675 0.151 0.277-0.682 1.973-3.658-0.884-3.74-0.791-0.722 3.108-0.87 4.37 4.147 0.962z" fill="#ffffff" data-fill-palette-color="accent"></path><path d="M91.494 32.141l-0.026 0.314-1.409 1.548-9.662-7.251 4.024-5.081 8.89-12.125 9.685 7.269-0.05 0.297-1.409 1.548-3.993-3.121-3.454-2.506-4.283 5.591 3.182 2.475 2.903 2.055 0.024 0.314-1.435 1.517-2.968-2.314-3.081-2.263-1.939 2.534-2.595 3.622 3.381 2.587z" fill="#ffffff" data-fill-palette-color="accent"></path><path d="M103.776 42.021c-1.479 2.434-3.002 5.32-4.566 8.66v0l-0.316 0.12c-0.651-0.566-1.214-1.205-1.689-1.916v0l0.037-0.443c1.596-2.895 3.219-5.593 4.872-8.094v0l-1.812-3.478-1.139 0.593-5.889 3.212-1.254-2.409 5.824-2.844 13.255-7.094 3.066 5.821c0.97 1.863 1.252 3.55 0.843 5.062-0.414 1.515-1.494 2.727-3.24 3.637v0c-1.308 0.681-2.66 0.951-4.055 0.809-1.401-0.139-2.714-0.684-3.937-1.636zM110.331 31.791l-7.992 4.051 1.766 3.625c1.792 1.888 3.851 2.226 6.175 1.015v0c1.209-0.63 1.944-1.428 2.205-2.395 0.267-0.97 0.08-2.12-0.561-3.45v0z" fill="#ffffff" data-fill-palette-color="accent"></path><path d="M29.456 78.415c0.891 2.09 1.168 4.116 0.83 6.077v0l-2.484 0.469-0.184-0.254c0.571-1.883 0.472-3.727-0.297-5.532v0c-0.839-1.969-2.167-3.192-3.982-3.672-1.809-0.481-4.019-0.166-6.629 0.948v0c-2.635 1.124-4.423 2.512-5.364 4.167-0.935 1.651-0.992 3.44-0.17 5.366v0c0.39 0.915 0.944 1.752 1.662 2.513 0.712 0.763 1.53 1.388 2.453 1.874v0l-0.023 0.375-2.465 0.793c-1.763-1.381-3.042-3.005-3.837-4.87v0c-1.142-2.677-1.16-5.121-0.056-7.332 1.105-2.211 3.265-4.002 6.482-5.373v0c3.295-1.405 6.164-1.719 8.607-0.943 2.434 0.773 4.253 2.571 5.457 5.394z" fill="#ffffff" data-fill-palette-color="accent"></path><path d="M39.811 89.873l-8.158 21.352-2.145-1.761 0.983-1.991 1.415-3.656-3.701-3.165-3.461-2.712-3.29 1.938-1.88 1.434-2.092-1.717 19.901-11.715zM29.741 99.153l3.053 2.415 4.061-10.492-0.183-0.15-9.811 5.773z" fill="#ffffff" data-fill-palette-color="accent"></path><path d="M52.982 109.04c0.874 2.736 2.063 5.805 3.569 9.207v0l-0.117 0.317c-0.861 0.118-1.719 0.122-2.573 0.012v0l-0.309-0.318c-1.152-3.128-2.13-6.146-2.936-9.055v0l-3.851-0.924-0.3 1.248-1.445 6.611-2.67-0.641 1.697-6.307 3.365-14.774 6.461 1.521c2.062 0.495 3.532 1.397 4.409 2.704 0.876 1.314 1.083 2.935 0.62 4.862v0c-0.347 1.447-1.037 2.656-2.069 3.628-1.032 0.971-2.316 1.608-3.851 1.909zM49.544 97.295l-2.203 8.755 3.914 1.042c2.626-0.108 4.248-1.445 4.865-4.013v0c0.321-1.338 0.2-2.427-0.364-3.267-0.562-0.846-1.562-1.462-3-1.848v0z" fill="#ffffff" data-fill-palette-color="accent"></path><path d="M79.882 112.497l0.223 0.233 0.252 2.089-11.889 2.64-1.242-6.412-3.458-14.753 11.928-2.648 0.183 0.232 0.263 2.097-5.008 1-4.18 0.999 1.472 6.948 3.978-0.812 3.479-0.874 0.244 0.189 0.223 2.095-3.708 0.753-3.752 0.873 0.657 3.143 1.072 4.375 4.201-0.902z" fill="#ffffff" data-fill-palette-color="accent"></path><path d="M98.745 99.573l0.3 0.121 1.089 1.8-9.748 7.3-3.771-5.333-9.224-12.021 9.78-7.324 0.262 0.137 1.103 1.802-4.152 2.974-3.398 2.631 4.201 5.726 3.291-2.378 2.811-2.228 0.3 0.071 1.065 1.818-3.069 2.213-3.06 2.34 1.893 2.593 2.778 3.546 3.457-2.551z" fill="#ffffff" data-fill-palette-color="accent"></path><path d="M103.151 79.795c2.866-0.18 6.133-0.585 9.799-1.216v0l0.279 0.191c-0.095 0.864-0.301 1.697-0.616 2.498v0l-0.384 0.223c-3.314 0.354-6.48 0.567-9.497 0.638v0l-1.836 3.509 1.138 0.596 6.059 3.014-1.273 2.433-5.703-3.185-13.507-6.866 3.05-5.895c0.983-1.879 2.216-3.084 3.699-3.617 1.488-0.529 3.111-0.335 4.866 0.585v0c1.319 0.69 2.323 1.654 3.013 2.891 0.69 1.238 0.994 2.638 0.913 4.201zM90.922 80.264l7.953 4.272 1.965-3.542c0.536-2.573-0.365-4.472-2.705-5.696v0c-1.219-0.638-2.305-0.786-3.257-0.444-0.958 0.339-1.799 1.158-2.524 2.458v0z" fill="#ffffff" data-fill-palette-color="accent"></path><path d="M3.186 61.039c0-4.574 3.708-8.282 8.282-8.282 4.574 0 8.282 3.708 8.282 8.282 0 4.574-3.708 8.282-8.282 8.282-4.574 0-8.282-3.708-8.282-8.282z" fill="#ffffff" data-fill-palette-color="accent"></path><path d="M98.906 61.039c0-4.574 3.708-8.282 8.282-8.282 4.574 0 8.282 3.708 8.282 8.282 0 4.574-3.708 8.282-8.282 8.282-4.574 0-8.282-3.708-8.282-8.282z" fill="#ffffff" data-fill-palette-color="accent"></path></g></svg></g></svg></g><g></g></svg></g></svg></g></svg></g><defs></defs></svg><rect width="320" height="360" fill="none" stroke="none" visibility="hidden"></rect></g></svg></g></svg>