<svg xmlns="http://www.w3.org/2000/svg" version="1.1" xmlns:xlink="http://www.w3.org/1999/xlink" xmlns:svgjs="http://svgjs.dev/svgjs" width="2000" height="1907" viewBox="0 0 2000 1907"><g transform="matrix(1,0,0,1,0.35633256504377187,0.7720647773279552)"><svg viewBox="0 0 259 247" data-background-color="#97978d" preserveAspectRatio="xMidYMid meet" height="1907" width="2000" xmlns="http://www.w3.org/2000/svg" xmlns:xlink="http://www.w3.org/1999/xlink"><g id="tight-bounds" transform="matrix(1,0,0,1,-0.04614506717317113,-0.09999999999999432)"><svg viewBox="0 0 259.09229013434634 247.2" height="247.2" width="259.09229013434634"><g><svg viewBox="0 0 259.09229013434634 247.2" height="247.2" width="259.09229013434634"><g><svg viewBox="0 0 395.52 377.365702195547" height="247.2" width="259.09229013434634"><g transform="matrix(1,0,0,1,0,293.7691871907067)"><svg viewBox="0 0 395.52 83.59651500484028" height="83.59651500484028" width="395.52"><g id="textblocktransform"><svg viewBox="0 0 395.52 83.59651500484028" height="83.59651500484028" width="395.52" id="textblock"><g><svg viewBox="0 0 395.52 83.59651500484028" height="83.59651500484028" width="395.52"><g transform="matrix(1,0,0,1,0,0)"><svg width="395.52" viewBox="1.9 -32.3 154.94 32.75" height="83.59651500484028" data-palette-color="#ffffff"><path d="M16.1-32.3Q21.15-32.3 24.85-29.9L24.85-29.9 24.05-26.25 23.6-26.15Q20.25-28.95 15.9-28.95L15.9-28.95Q11.15-28.95 8.6-25.68 6.05-22.4 6.05-16.1L6.05-16.1Q6.05-9.75 8.6-6.4 11.15-3.05 15.8-3.05L15.8-3.05Q18-3.05 20.18-3.85 22.35-4.65 24.15-6.1L24.15-6.1 24.65-5.85 24.3-2.05Q19.95 0.35 15.45 0.35L15.45 0.35Q9 0.35 5.45-3.83 1.9-8 1.9-15.75L1.9-15.75Q1.9-23.7 5.6-28 9.3-32.3 16.1-32.3L16.1-32.3ZM43.1-32.05L53.8 0 49.7 0 48.95-3.2 47.15-8.7 39.95-8.85 33.45-8.7 31.5-3.4 30.7 0 26.7 0 38.45-32.05 43.1-32.05ZM40.3-12L46.05-12.1 40.85-27.9 40.5-27.9 34.7-12.1 40.3-12ZM72.59-12.95Q75.9-7.5 80.9-0.95L80.9-0.95 80.84-0.45Q79.05 0.25 77.15 0.45L77.15 0.45 76.59 0.1Q72.5-6.05 69.25-11.9L69.25-11.9 63.4-11.9 63.4-10 63.6 0 59.55 0 59.8-9.65 59.55-32.05 69.34-32.1Q74.05-32.1 76.62-29.73 79.2-27.35 79.2-22.95L79.2-22.95Q79.2-19.65 77.47-17.03 75.75-14.4 72.59-12.95L72.59-12.95ZM63.6-28.65L63.45-15.3 69.45-15.15Q75.05-16.75 75.05-22.6L75.05-22.6Q75.05-25.65 73.4-27.18 71.75-28.7 68.45-28.8L68.45-28.8 63.6-28.65ZM105.34-3.5L105.59-3.1 105.29 0 87.29 0 87.54-9.65 87.29-32.05 105.34-32.05 105.54-31.65 105.24-28.55 97.69-28.7 91.34-28.6 91.24-18.1 97.24-18 102.54-18.15 102.84-17.8 102.49-14.7 96.89-14.8 91.19-14.75 91.14-10 91.29-3.35 97.64-3.3 105.34-3.5ZM129.44-3.5L129.69-3.1 129.39 0 111.39 0 111.64-9.65 111.39-32.05 129.44-32.05 129.64-31.65 129.34-28.55 121.79-28.7 115.44-28.6 115.34-18.1 121.34-18 126.64-18.15 126.94-17.8 126.59-14.7 120.99-14.8 115.29-14.75 115.24-10 115.39-3.35 121.74-3.3 129.44-3.5ZM148.54-12.95Q151.84-7.5 156.84-0.95L156.84-0.95 156.79-0.45Q154.99 0.25 153.09 0.45L153.09 0.45 152.54 0.1Q148.44-6.05 145.19-11.9L145.19-11.9 139.34-11.9 139.34-10 139.54 0 135.49 0 135.74-9.65 135.49-32.05 145.29-32.1Q149.99-32.1 152.56-29.73 155.14-27.35 155.14-22.95L155.14-22.95Q155.14-19.65 153.41-17.03 151.69-14.4 148.54-12.95L148.54-12.95ZM139.54-28.65L139.39-15.3 145.39-15.15Q150.99-16.75 150.99-22.6L150.99-22.6Q150.99-25.65 149.34-27.18 147.69-28.7 144.39-28.8L144.39-28.8 139.54-28.65Z" opacity="1" transform="matrix(1,0,0,1,0,0)" fill="#ffffff" class="wordmark-text-0" data-fill-palette-color="primary" id="text-0"></path></svg></g></svg></g></svg></g></svg></g><g transform="matrix(1,0,0,1,75.54432,0)"><svg viewBox="0 0 244.43135999999998 244.43135999999998" height="244.43135999999998" width="244.43135999999998"><g><svg viewBox="0 0 244.43135999999998 244.43135999999998" height="244.43135999999998" width="244.43135999999998"><g transform="matrix(1,0,0,1,68.92485882449763,64.60265593644992)"><svg viewBox="0 0 106.58164235100472 115.22604812710014" height="115.22604812710014" width="106.58164235100472"><g><svg xmlns="http://www.w3.org/2000/svg" xmlns:xlink="http://www.w3.org/1999/xlink" version="1.1" x="0" y="0" viewBox="9.739174992761491 9.299999999999997 72.4608250072385 78.33782934322308" style="enable-background:new 0 0 100 100;" xml:space="preserve" height="115.22604812710014" width="106.58164235100472" class="icon-z$-0" data-fill-palette-color="accent" id="z$-0"><g fill="#ffffff" data-fill-palette-color="accent"><g fill="#ffffff" data-fill-palette-color="accent"><g fill="#ffffff" data-fill-palette-color="accent"><path class="" d="M53.2 74.1c0 0.1 0 0.1-0.1 0.2 0 0.1 0 0.1-0.1 0.2L53 74.5 46 87c-0.3 0.6-1.1 0.8-1.7 0.5l-4.7-2.9c-0.6-0.4-0.8-1.2-0.4-1.8l4.2-7.4 2.8-14 8.5 5.7L53.2 74.1C53.2 74 53.2 74 53.2 74.1z" fill="#ffffff" data-fill-palette-color="accent"></path><path class="" d="M53.2 22.9c-1.9-1.4-3.1-3.6-3.1-6.1 0-4.2 3.4-7.5 7.5-7.5 4.2 0 7.5 3.4 7.5 7.5 0 3.4-2.2 6.3-5.3 7.2-0.7 0.2-1.4 0.3-2.2 0.3C56 24.4 54.5 23.8 53.2 22.9z" fill="#ffffff" data-fill-palette-color="accent"></path><path class="" d="M68 84.4c-0.2 0.7-0.8 1.1-1.5 1l-5.3-1.3c-0.7-0.2-1.1-0.8-0.9-1.5l3.1-14L43 55c-0.3-0.4-0.4-1-0.1-1.5 0-0.1 0-0.3 0-0.4l2.7-17.5-8.5 4.2-3.2 9.4c-0.2 0.7-0.9 1-1.6 0.8l-3.7-1.3c-0.7-0.2-1-0.9-0.8-1.6l4.6-13.4c0.1-0.4 0.4-0.7 0.8-0.8 0.1-0.1 0.2-0.1 0.2-0.2l14.2-6.9c0.1-0.1 0.3-0.1 0.4-0.1h0.1 0.2c0 0 0.1 0 0.1 0l3.7 0.6c0 0 0.1 0.1 0.1 0.1l4.5 4.9c0.4 0.3 1 0.1 1.2-0.3l1-3.7 4.1 0.6c0.1 0 0.2 0.1 0.3 0.1 0.2 0.1 0.3 0.2 0.5 0.3l9.9 9.9c0 0 0.1 0.1 0.1 0.1h7.1c0.7 0 1.3 0.6 1.3 1.3v3.4c0 0.7-0.6 1.3-1.3 1.3H69c-0.4 0-0.8-0.2-1-0.5L62.2 38l-3.4 15.6 13.3 8.9c0.5 0.3 0.7 1 0.5 1.6L68 84.4z" fill="#ffffff" data-fill-palette-color="accent"></path><path class="" d="M34.6 52.5c0.2 0.1 0.4 0.3 0.3 0.6l-0.8 2.2c-0.1 0.2-0.3 0.4-0.6 0.3l-9.3-3.4c-0.2-0.1-0.4-0.3-0.3-0.6l0.8-2.2c0.1-0.2 0.3-0.4 0.6-0.3l2.6 1 3.7 1.4L34.6 52.5z" fill="#ffffff" data-fill-palette-color="accent"></path><path class="" d="M53 74.4c0-0.1 0.1-0.1 0.1-0.2 0 0.1-0.1 0.2-0.2 0.3L53 74.4z" fill="#ffffff" data-fill-palette-color="accent"></path><path class="" d="M48.2 25.6C48.2 25.6 48.2 25.6 48.2 25.6l-0.2 0C48.1 25.6 48.1 25.6 48.2 25.6z" fill="#ffffff" data-fill-palette-color="accent"></path><path class="" d="M46.9 57.7l-3.6-2.4c-0.1-0.1-0.2-0.1-0.2-0.2L46.9 57.7z" fill="#ffffff" data-fill-palette-color="accent"></path><path class="" d="M40.9 59.9c0.5 0.3 0.8 0.9 0.6 1.5l-4.8 13.2c-0.2 0.7-1 1-1.6 0.8l-24.5-8.9c-0.7-0.2-1-1-0.8-1.6l4.8-13.2c0.2-0.7 1-1 1.6-0.8l7.5 2.7 17 6.2C40.8 59.8 40.8 59.9 40.9 59.9z" fill="#ffffff" data-fill-palette-color="accent"></path></g></g></g></svg></g></svg></g><g><path d="M4.152 78.507c0.849-2.434 2.16-4.338 3.933-5.713v0l2.428 1.49-0.037 0.351c-1.913 1.141-3.235 2.759-3.966 4.855v0c-0.795 2.281-0.618 4.311 0.534 6.092 1.147 1.772 3.237 3.187 6.269 4.244v0c3.052 1.064 5.596 1.266 7.635 0.605 2.041-0.667 3.451-2.119 4.23-4.355v0c0.369-1.058 0.541-2.176 0.517-3.357-0.018-1.178-0.226-2.323-0.624-3.433v0l0.308-0.3 2.656 1.205c0.422 2.498 0.255 4.83-0.5 6.996v0c-1.082 3.103-2.924 5.157-5.527 6.165-2.602 1.007-5.767 0.861-9.493-0.438v0c-3.822-1.333-6.458-3.253-7.906-5.759-1.444-2.497-1.596-5.38-0.457-8.648z" fill="#ffffff" data-fill-palette-color="accent"></path><path d="M39.804 28.131l22.486 12.692-2.328 2.103-2.062-1.438-3.837-2.193-4.16 3.608-3.612 3.414 1.609 4.001 1.293 2.337-2.267 2.049-9.758-24.192zM48.491 40.932l3.212-2.997-11.045-6.293-0.196 0.177 4.805 11.931z" fill="#ffffff" data-fill-palette-color="accent"></path><path d="M100.025 13.976c2.311 2.282 5.112 4.726 8.403 7.33v0l0.055 0.383c-0.802 0.572-1.658 1.025-2.568 1.36v0l-0.477-0.15c-2.791-2.529-5.357-5.032-7.697-7.51v0l-4.326 1.096 0.355 1.403 2.024 7.37-3.002 0.761-1.626-7.2-4.388-16.542 7.252-1.869c2.322-0.588 4.265-0.458 5.831 0.392 1.572 0.848 2.633 2.357 3.183 4.529v0c0.414 1.635 0.357 3.209-0.172 4.721-0.522 1.51-1.471 2.819-2.847 3.926zM90.419 4.038l2.387 9.919 4.471-1.018c2.566-1.492 3.484-3.68 2.754-6.565v0c-0.381-1.504-1.073-2.533-2.077-3.086-1.008-0.545-2.332-0.634-3.972-0.268v0z" fill="#ffffff" data-fill-palette-color="accent"></path><path d="M157.068 24.471l0.115 0.34-0.788 2.246-13.361-3.266 1.939-7.121 3.876-16.67 13.4 3.275 0.073 0.341-0.789 2.245-5.575-1.488-4.728-1.072-1.984 7.777 4.437 1.157 3.959 0.853 0.163 0.311-0.818 2.238-4.141-1.085-4.245-1.006-0.892 3.522-1.098 4.962 4.699 1.19z" fill="#ffffff" data-fill-palette-color="accent"></path><path d="M198.342 51.241l-0.053 0.355-1.725 1.639-10.403-8.997 4.972-5.455 11.05-13.069 10.433 9.024-0.09 0.336-1.726 1.639-4.283-3.865-3.72-3.111-5.311 6.018 3.421 3.052 3.135 2.564 0.004 0.352-1.749 1.619-3.191-2.854-3.319-2.831-2.4 2.728-3.239 3.916 3.64 3.201z" fill="#ffffff" data-fill-palette-color="accent"></path><path d="M228.008 87.684c-1.974 2.579-4.046 5.665-6.218 9.256v0l-0.372 0.103c-0.668-0.724-1.225-1.516-1.673-2.377v0l0.09-0.492c2.159-3.087 4.32-5.946 6.484-8.578v0l-1.63-4.155-1.348 0.529-7.057 2.932-1.131-2.882 6.938-2.516 15.861-6.431 2.764 6.961c0.875 2.23 0.989 4.174 0.343 5.833-0.644 1.666-2.008 2.908-4.093 3.727v0c-1.57 0.616-3.139 0.757-4.705 0.422-1.564-0.329-2.982-1.106-4.253-2.332zM236.662 76.906l-9.541 3.613 1.571 4.309c1.802 2.359 4.089 2.994 6.858 1.907v0c1.445-0.567 2.378-1.383 2.802-2.447 0.414-1.069 0.336-2.393-0.234-3.975v0z" fill="#ffffff" data-fill-palette-color="accent"></path><path d="M32.934 159.726c0.855 2.446 1.012 4.767 0.471 6.964v0l-2.85 0.342-0.19-0.298c0.789-2.098 0.816-4.201 0.079-6.31v0c-0.803-2.299-2.214-3.79-4.232-4.471-2.018-0.682-4.552-0.489-7.603 0.576v0c-3.076 1.075-5.211 2.514-6.403 4.317-1.192 1.803-1.395 3.832-0.607 6.087v0c0.372 1.064 0.936 2.056 1.694 2.978 0.756 0.915 1.636 1.687 2.642 2.315v0l-0.055 0.426-2.851 0.707c-1.9-1.695-3.232-3.634-3.995-5.819v0c-1.09-3.121-0.923-5.895 0.502-8.323 1.425-2.427 4.013-4.296 7.764-5.607v0c3.854-1.346 7.134-1.488 9.842-0.427 2.708 1.062 4.639 3.243 5.792 6.543z" fill="#ffffff" data-fill-palette-color="accent"></path><path d="M60.013 197.765l-10.418 23.835-2.344-2.115 1.22-2.212 1.812-4.077-4.042-3.799-3.786-3.267-3.852 2.017-2.208 1.539-2.291-2.069 23.249-12.253zM48.071 207.777l3.33 2.911 5.184-11.709-0.203-0.183-11.464 6.04z" fill="#ffffff" data-fill-palette-color="accent"></path><path d="M100.265 233.458c0.956 3.123 2.267 6.633 3.933 10.528v0l-0.134 0.363c-0.984 0.12-1.959 0.109-2.926-0.031v0l-0.347-0.36c-1.266-3.578-2.338-7.026-3.217-10.346v0l-4.365-1.105-0.358 1.413-1.743 7.503-3.022-0.765 2.01-7.154 4.046-16.765 7.319 1.811c2.342 0.593 4.003 1.644 4.986 3.152 0.976 1.507 1.187 3.352 0.634 5.537v0c-0.416 1.642-1.218 3.008-2.406 4.1-1.188 1.091-2.658 1.798-4.41 2.119zM96.52 220.045l-2.639 9.928 4.454 1.253c2.988-0.092 4.851-1.594 5.588-4.504v0c0.384-1.517 0.26-2.76-0.372-3.727-0.625-0.966-1.752-1.683-3.38-2.151v0z" fill="#ffffff" data-fill-palette-color="accent"></path><path d="M160.385 237.027l0.258 0.25 0.341 2.375-13.46 3.287-1.575-7.262-4.278-16.708 13.499-3.296 0.219 0.259 0.341 2.375-5.67 1.27-4.732 1.229 1.84 7.874 4.512-1.018 3.933-1.086 0.291 0.211 0.302 2.385-4.208 0.944-4.257 1.081 0.837 3.557 1.323 4.948 4.758-1.12z" fill="#ffffff" data-fill-palette-color="accent"></path><path d="M207.336 207.314l0.344 0.104 1.385 1.959-10.484 9.058-4.711-5.747-11.419-12.925 10.515-9.083 0.313 0.13 1.386 1.96-4.469 3.713-3.653 3.249 5.225 6.172 3.553-2.962 3.007-2.758 0.355 0.054 1.354 1.986-3.315 2.758-3.297 2.902 2.365 2.784 3.432 3.803 3.726-3.165z" fill="#ffffff" data-fill-palette-color="accent"></path><path d="M227.27 160.263c3.219-0.553 6.866-1.41 10.941-2.569v0l0.343 0.178c-0.006 0.991-0.139 1.957-0.401 2.899v0l-0.401 0.299c-3.709 0.803-7.266 1.43-10.669 1.881v0l-1.649 4.191 1.356 0.534 7.222 2.678-1.141 2.901-6.842-2.899-16.118-6.135 2.722-7.031c0.884-2.248 2.137-3.763 3.758-4.547 1.618-0.777 3.476-0.753 5.573 0.072v0c1.576 0.62 2.83 1.588 3.762 2.905 0.932 1.317 1.447 2.864 1.544 4.643zM213.491 162.28l9.515 3.874 1.806-4.259c0.286-2.976-0.967-5.014-3.761-6.113v0c-1.457-0.573-2.705-0.607-3.745-0.103-1.037 0.498-1.891 1.525-2.561 3.082v0z" fill="#ffffff" data-fill-palette-color="accent"></path><path d="M1.344 124.086c0-5.205 4.22-9.425 9.425-9.425 5.205 0 9.425 4.22 9.426 9.425 0 5.205-4.22 9.425-9.426 9.426-5.205 0-9.425-4.22-9.425-9.426z" fill="#ffffff" data-fill-palette-color="accent"></path><path d="M224.237 124.086c0-5.205 4.22-9.425 9.425-9.425 5.205 0 9.425 4.22 9.426 9.425 0 5.205-4.22 9.425-9.426 9.426-5.205 0-9.425-4.22-9.425-9.426z" fill="#ffffff" data-fill-palette-color="accent"></path></g></svg></g></svg></g><g></g></svg></g></svg></g><defs></defs></svg><rect width="259.09229013434634" height="247.2" fill="none" stroke="none" visibility="hidden"></rect></g></svg></g></svg>