<svg xmlns="http://www.w3.org/2000/svg" version="1.1" xmlns:xlink="http://www.w3.org/1999/xlink" xmlns:svgjs="http://svgjs.dev/svgjs" width="2000" height="2266" viewBox="0 0 2000 2266"><g transform="matrix(1,0,0,1,-0.5917840915399211,0.9174089068824287)"><svg viewBox="0 0 218 247" data-background-color="#97978d" preserveAspectRatio="xMidYMid meet" height="2266" width="2000" xmlns="http://www.w3.org/2000/svg" xmlns:xlink="http://www.w3.org/1999/xlink"><g id="tight-bounds" transform="matrix(1,0,0,1,0.06450446597784776,-0.09999999999999432)"><svg viewBox="0 0 217.87099106804433 247.2" height="247.2" width="217.87099106804433"><g><svg viewBox="0 0 217.87099106804433 247.2" height="247.2" width="217.87099106804433"><g><svg viewBox="0 0 395.52 448.76347934482095" height="247.2" width="217.87099106804433"><g transform="matrix(1,0,0,1,0,293.7691871907067)"><svg viewBox="0 0 395.52 154.99429215411425" height="154.99429215411425" width="395.52"><g id="textblocktransform"><svg viewBox="0 0 395.52 154.99429215411425" height="154.99429215411425" width="395.52" id="textblock"><g><svg viewBox="0 0 395.52 83.59651500484028" height="83.59651500484028" width="395.52"><g transform="matrix(1,0,0,1,0,0)"><svg width="395.52" viewBox="1.9 -32.3 154.94 32.75" height="83.59651500484028" data-palette-color="#ffffff"><path d="M16.1-32.3Q21.15-32.3 24.85-29.9L24.85-29.9 24.05-26.25 23.6-26.15Q20.25-28.95 15.9-28.95L15.9-28.95Q11.15-28.95 8.6-25.68 6.05-22.4 6.05-16.1L6.05-16.1Q6.05-9.75 8.6-6.4 11.15-3.05 15.8-3.05L15.8-3.05Q18-3.05 20.18-3.85 22.35-4.65 24.15-6.1L24.15-6.1 24.65-5.85 24.3-2.05Q19.95 0.35 15.45 0.35L15.45 0.35Q9 0.35 5.45-3.83 1.9-8 1.9-15.75L1.9-15.75Q1.9-23.7 5.6-28 9.3-32.3 16.1-32.3L16.1-32.3ZM43.1-32.05L53.8 0 49.7 0 48.95-3.2 47.15-8.7 39.95-8.85 33.45-8.7 31.5-3.4 30.7 0 26.7 0 38.45-32.05 43.1-32.05ZM40.3-12L46.05-12.1 40.85-27.9 40.5-27.9 34.7-12.1 40.3-12ZM72.59-12.95Q75.9-7.5 80.9-0.95L80.9-0.95 80.84-0.45Q79.05 0.25 77.15 0.45L77.15 0.45 76.59 0.1Q72.5-6.05 69.25-11.9L69.25-11.9 63.4-11.9 63.4-10 63.6 0 59.55 0 59.8-9.65 59.55-32.05 69.34-32.1Q74.05-32.1 76.62-29.73 79.2-27.35 79.2-22.95L79.2-22.95Q79.2-19.65 77.47-17.03 75.75-14.4 72.59-12.95L72.59-12.95ZM63.6-28.65L63.45-15.3 69.45-15.15Q75.05-16.75 75.05-22.6L75.05-22.6Q75.05-25.65 73.4-27.18 71.75-28.7 68.45-28.8L68.45-28.8 63.6-28.65ZM105.34-3.5L105.59-3.1 105.29 0 87.29 0 87.54-9.65 87.29-32.05 105.34-32.05 105.54-31.65 105.24-28.55 97.69-28.7 91.34-28.6 91.24-18.1 97.24-18 102.54-18.15 102.84-17.8 102.49-14.7 96.89-14.8 91.19-14.75 91.14-10 91.29-3.35 97.64-3.3 105.34-3.5ZM129.44-3.5L129.69-3.1 129.39 0 111.39 0 111.64-9.65 111.39-32.05 129.44-32.05 129.64-31.65 129.34-28.55 121.79-28.7 115.44-28.6 115.34-18.1 121.34-18 126.64-18.15 126.94-17.8 126.59-14.7 120.99-14.8 115.29-14.75 115.24-10 115.39-3.35 121.74-3.3 129.44-3.5ZM148.54-12.95Q151.84-7.5 156.84-0.95L156.84-0.95 156.79-0.45Q154.99 0.25 153.09 0.45L153.09 0.45 152.54 0.1Q148.44-6.05 145.19-11.9L145.19-11.9 139.34-11.9 139.34-10 139.54 0 135.49 0 135.74-9.65 135.49-32.05 145.29-32.1Q149.99-32.1 152.56-29.73 155.14-27.35 155.14-22.95L155.14-22.95Q155.14-19.65 153.41-17.03 151.69-14.4 148.54-12.95L148.54-12.95ZM139.54-28.65L139.39-15.3 145.39-15.15Q150.99-16.75 150.99-22.6L150.99-22.6Q150.99-25.65 149.34-27.18 147.69-28.7 144.39-28.8L144.39-28.8 139.54-28.65Z" opacity="1" transform="matrix(1,0,0,1,0,0)" fill="#000000" class="wordmark-text-0" data-fill-palette-color="primary" id="text-0"></path></svg></g></svg></g><g transform="matrix(1,0,0,1,0,103.33164588112297)"><svg viewBox="0 0 395.52 51.662646272991296" height="51.662646272991296" width="395.52"><g transform="matrix(1,0,0,1,0,0)"><svg width="395.52" viewBox="1.85 -37.2 385.84999999999997 50.400000000000006" height="51.662646272991296" data-palette-color="#ffffff"><path d="M14.5-32.25L6.05-32.25Q5.25-32.25 4.67-31.75 4.1-31.25 3.9-30.5L3.9-30.5 1.85-30.5Q1.9-31.85 3.05-33L3.05-33Q4.3-34.25 5.9-34.25L5.9-34.25 28.55-34.25 28.55-32.25 16.6-32.25 16.6-0.05 14.5-0.05 14.5-32.25ZM47.27 0.45Q43.72 0.45 41-1.15 38.27-2.75 36.75-5.65 35.22-8.55 35.22-12.3L35.22-12.3Q35.22-16.1 36.75-19.03 38.27-21.95 41.02-23.6 43.77-25.25 47.32-25.25L47.32-25.25Q50.87-25.25 53.62-23.63 56.37-22 57.9-19.07 59.42-16.15 59.42-12.35L59.42-12.35Q59.42-8.6 57.9-5.68 56.37-2.75 53.62-1.15 50.87 0.45 47.27 0.45L47.27 0.45ZM47.32-1.45Q50.27-1.45 52.55-2.85 54.82-4.25 56.07-6.78 57.32-9.3 57.32-12.55L57.32-12.55Q57.32-15.75 56.07-18.2 54.82-20.65 52.55-22 50.27-23.35 47.32-23.35L47.32-23.35Q44.37-23.35 42.1-21.98 39.82-20.6 38.57-18.1 37.32-15.6 37.32-12.35L37.32-12.35Q37.32-9.15 38.57-6.68 39.82-4.2 42.1-2.83 44.37-1.45 47.32-1.45L47.32-1.45ZM82.74-25.25Q86.19-25.25 88.59-23.55 90.99-21.85 92.19-18.98 93.39-16.1 93.39-12.55L93.39-12.55Q93.39-8.7 91.97-5.78 90.54-2.85 87.82-1.2 85.09 0.45 81.29 0.45L81.29 0.45Q79.29 0.45 74.84-0.15L74.84-0.15 74.84 13 72.74 13 72.74-18.05Q72.74-20.25 72.29-21.53 71.84-22.8 70.89-24L70.89-24 72.29-25.35Q73.34-24.35 74.02-23.05 74.69-21.75 74.79-20.35L74.79-20.35Q75.84-22.9 77.92-24.08 79.99-25.25 82.74-25.25L82.74-25.25ZM81.04-1.45Q85.99-1.45 88.64-4.42 91.29-7.4 91.29-12.25L91.29-12.25Q91.29-15.25 90.29-17.78 89.29-20.3 87.37-21.83 85.44-23.35 82.89-23.35L82.89-23.35Q80.94-23.35 79.17-22.48 77.39-21.6 76.19-20.03 74.99-18.45 74.84-16.45L74.84-16.45 74.84-1.95Q79.84-1.45 81.04-1.45L81.04-1.45ZM137.68 0.45Q134.13 0.45 131.41-1.15 128.68-2.75 127.16-5.65 125.63-8.55 125.63-12.3L125.63-12.3Q125.63-16.1 127.16-19.03 128.68-21.95 131.43-23.6 134.18-25.25 137.73-25.25L137.73-25.25Q141.28-25.25 144.03-23.63 146.78-22 148.31-19.07 149.83-16.15 149.83-12.35L149.83-12.35Q149.83-8.6 148.31-5.68 146.78-2.75 144.03-1.15 141.28 0.45 137.68 0.45L137.68 0.45ZM137.73-1.45Q140.68-1.45 142.96-2.85 145.23-4.25 146.48-6.78 147.73-9.3 147.73-12.55L147.73-12.55Q147.73-15.75 146.48-18.2 145.23-20.65 142.96-22 140.68-23.35 137.73-23.35L137.73-23.35Q134.78-23.35 132.51-21.98 130.23-20.6 128.98-18.1 127.73-15.6 127.73-12.35L127.73-12.35Q127.73-9.15 128.98-6.68 130.23-4.2 132.51-2.83 134.78-1.45 137.73-1.45L137.73-1.45ZM163.36-25.3Q163.36-31.55 165.21-34.38 167.06-37.2 171.16-37.2L171.16-37.2Q174.51-37.2 176.31-35.3 178.11-33.4 178.11-29.9L178.11-29.9Q178.11-25.65 175.48-23.35 172.86-21.05 168.26-21.2L168.26-21.2 165.46-21.3 165.46-12.2 173.01-12.2 173.01-10.3 165.46-10.3 165.46 13.2 163.36 13.2 163.36-25.3ZM168.26-23.1Q171.81-23.1 173.91-24.95 176.01-26.8 176.01-29.95L176.01-29.95Q176.01-32.4 174.66-33.85 173.31-35.3 171.06-35.3L171.06-35.3Q165.46-35.3 165.46-25.45L165.46-25.45 165.46-23.1 168.26-23.1ZM225.55 1.1Q220.7 1.1 216.8-1.33 212.9-3.75 210.67-7.85 208.45-11.95 208.45-16.85L208.45-16.85Q208.45-21.75 210.77-26 213.1-30.25 217.1-32.77 221.1-35.3 225.85-35.3L225.85-35.3Q230.5-35.3 233.85-33.43 237.2-31.55 237.2-28L237.2-28Q237.2-26.15 236.1-24.88 235-23.6 233.25-23.6L233.25-23.6Q231.95-23.6 230.95-24.3L230.95-24.3 232.2-25.9Q232.9-25.6 233.3-25.6L233.3-25.6Q234.15-25.6 234.75-26.35 235.35-27.1 235.35-28.05L235.35-28.05Q235.35-29.6 233.85-30.8 232.35-32 230.15-32.63 227.95-33.25 225.9-33.25L225.9-33.25Q221.65-33.25 218.12-30.95 214.6-28.65 212.57-24.88 210.55-21.1 210.55-16.85L210.55-16.85Q210.55-12.6 212.47-8.93 214.4-5.25 217.85-3.08 221.3-0.9 225.6-0.9L225.6-0.9Q229.25-0.9 232.5-2.55 235.75-4.2 237.8-7L237.8-7 239.4-5.9Q236.9-2.4 233.25-0.65 229.6 1.1 225.55 1.1L225.55 1.1ZM274.62-2.4L276.22-1.4Q275.72-0.55 274.84-0.1 273.97 0.35 273.02 0.35L273.02 0.35Q271.22 0.35 270.17-0.68 269.12-1.7 268.97-3.7L268.97-3.7Q267.92-1.8 265.77-0.68 263.62 0.45 260.92 0.45L260.92 0.45Q257.47 0.45 255.09-1.28 252.72-3 251.54-5.88 250.37-8.75 250.37-12.25L250.37-12.25Q250.37-16.15 251.82-19.07 253.27-22 255.99-23.63 258.72-25.25 262.47-25.25L262.47-25.25Q263.62-25.25 265.39-25.13 267.17-25 268.52-24.8L268.52-24.8 271.02-24.8 271.02-3.9Q271.02-2.7 271.57-2.13 272.12-1.55 273.02-1.55L273.02-1.55Q273.47-1.55 273.94-1.8 274.42-2.05 274.62-2.4L274.62-2.4ZM268.92-9.3L268.92-23Q268.12-22.95 265.32-23.15L265.32-23.15 262.27-23.25Q257.52-23.25 254.99-20.15 252.47-17.05 252.47-12.35L252.47-12.35Q252.47-9.55 253.44-7.08 254.42-4.6 256.34-3.08 258.27-1.55 260.97-1.55L260.97-1.55Q263.42-1.55 265.32-2.75 267.22-3.95 268.17-5.85L268.17-5.85Q268.92-7.35 268.92-9.3L268.92-9.3ZM297.54-25.25Q298.24-25.25 300.14-24.9L300.14-24.9 300.14-23Q298.69-23.25 297.64-23.25L297.64-23.25Q294.79-23.25 293.04-21.85L293.04-21.85Q292.29-21.2 291.44-20.18 290.59-19.15 289.99-18L289.99-18 289.99-0.05 287.89-0.05 287.89-18.1Q287.89-20.3 287.44-21.58 286.99-22.85 286.04-24.05L286.04-24.05 287.44-25.4Q288.54-24.35 289.22-23.03 289.89-21.7 289.99-20.25L289.99-20.25Q290.64-21.55 291.54-22.6 292.44-23.65 293.34-24.2L293.34-24.2Q295.04-25.25 297.54-25.25L297.54-25.25ZM320.71 0.45Q315.16 0.45 312.31-2.83 309.46-6.1 309.46-11.45L309.46-11.45Q309.46-14.9 310.66-18.05 311.86-21.2 314.36-23.23 316.86-25.25 320.51-25.25L320.51-25.25Q324.31-25.25 326.86-23.2 329.41-21.15 329.41-17.75L329.41-17.75Q329.41-14.15 326.44-12.2 323.46-10.25 318.36-10.25L318.36-10.25 311.71-10.25Q312.11-6.05 314.41-3.75 316.71-1.45 320.71-1.45L320.71-1.45Q322.96-1.45 324.84-2.1 326.71-2.75 328.71-4L328.71-4 329.76-2.55Q325.51 0.45 320.71 0.45L320.71 0.45ZM318.36-12.15Q322.36-12.15 324.84-13.5 327.31-14.85 327.31-17.8L327.31-17.8Q327.31-20.5 325.31-21.93 323.31-23.35 320.66-23.35L320.66-23.35Q317.61-23.35 315.54-21.53 313.46-19.7 312.49-17.07 311.51-14.45 311.61-12.15L311.61-12.15 318.36-12.15ZM352.98 0.45Q347.43 0.45 344.58-2.83 341.73-6.1 341.73-11.45L341.73-11.45Q341.73-14.9 342.93-18.05 344.13-21.2 346.63-23.23 349.13-25.25 352.78-25.25L352.78-25.25Q356.58-25.25 359.13-23.2 361.68-21.15 361.68-17.75L361.68-17.75Q361.68-14.15 358.71-12.2 355.73-10.25 350.63-10.25L350.63-10.25 343.98-10.25Q344.38-6.05 346.68-3.75 348.98-1.45 352.98-1.45L352.98-1.45Q355.23-1.45 357.11-2.1 358.98-2.75 360.98-4L360.98-4 362.03-2.55Q357.78 0.45 352.98 0.45L352.98 0.45ZM350.63-12.15Q354.63-12.15 357.11-13.5 359.58-14.85 359.58-17.8L359.58-17.8Q359.58-20.5 357.58-21.93 355.58-23.35 352.93-23.35L352.93-23.35Q349.88-23.35 347.81-21.53 345.73-19.7 344.76-17.07 343.78-14.45 343.88-12.15L343.88-12.15 350.63-12.15ZM385.1-25.25Q385.8-25.25 387.7-24.9L387.7-24.9 387.7-23Q386.25-23.25 385.2-23.25L385.2-23.25Q382.35-23.25 380.6-21.85L380.6-21.85Q379.85-21.2 379-20.18 378.15-19.15 377.55-18L377.55-18 377.55-0.05 375.45-0.05 375.45-18.1Q375.45-20.3 375-21.58 374.55-22.85 373.6-24.05L373.6-24.05 375-25.4Q376.1-24.35 376.78-23.03 377.45-21.7 377.55-20.25L377.55-20.25Q378.2-21.55 379.1-22.6 380-23.65 380.9-24.2L380.9-24.2Q382.6-25.25 385.1-25.25L385.1-25.25Z" opacity="1" transform="matrix(1,0,0,1,0,0)" fill="#000000" class="slogan-text-1" data-fill-palette-color="secondary" id="text-1"></path></svg></g></svg></g></svg></g></svg></g><g transform="matrix(1,0,0,1,75.54432,0)"><svg viewBox="0 0 244.43135999999998 244.43135999999998" height="244.43135999999998" width="244.43135999999998"><g><svg viewBox="0 0 244.43135999999998 244.43135999999998" height="244.43135999999998" width="244.43135999999998"><g transform="matrix(1,0,0,1,68.92485882449763,64.60265593644992)"><svg viewBox="0 0 106.58164235100472 115.22604812710014" height="115.22604812710014" width="106.58164235100472"><g><svg xmlns="http://www.w3.org/2000/svg" xmlns:xlink="http://www.w3.org/1999/xlink" version="1.1" x="0" y="0" viewBox="9.739174992761491 9.299999999999997 72.4608250072385 78.33782934322308" style="enable-background:new 0 0 100 100;" xml:space="preserve" height="115.22604812710014" width="106.58164235100472" class="icon-z$-0" data-fill-palette-color="accent" id="z$-0"><g fill="#ffffff" data-fill-palette-color="accent"><g fill="#ffffff" data-fill-palette-color="accent"><g fill="#ffffff" data-fill-palette-color="accent"><path class="" d="M53.2 74.1c0 0.1 0 0.1-0.1 0.2 0 0.1 0 0.1-0.1 0.2L53 74.5 46 87c-0.3 0.6-1.1 0.8-1.7 0.5l-4.7-2.9c-0.6-0.4-0.8-1.2-0.4-1.8l4.2-7.4 2.8-14 8.5 5.7L53.2 74.1C53.2 74 53.2 74 53.2 74.1z" fill="#000000" data-fill-palette-color="accent"></path><path class="" d="M53.2 22.9c-1.9-1.4-3.1-3.6-3.1-6.1 0-4.2 3.4-7.5 7.5-7.5 4.2 0 7.5 3.4 7.5 7.5 0 3.4-2.2 6.3-5.3 7.2-0.7 0.2-1.4 0.3-2.2 0.3C56 24.4 54.5 23.8 53.2 22.9z" fill="#000000" data-fill-palette-color="accent"></path><path class="" d="M68 84.4c-0.2 0.7-0.8 1.1-1.5 1l-5.3-1.3c-0.7-0.2-1.1-0.8-0.9-1.5l3.1-14L43 55c-0.3-0.4-0.4-1-0.1-1.5 0-0.1 0-0.3 0-0.4l2.7-17.5-8.5 4.2-3.2 9.4c-0.2 0.7-0.9 1-1.6 0.8l-3.7-1.3c-0.7-0.2-1-0.9-0.8-1.6l4.6-13.4c0.1-0.4 0.4-0.7 0.8-0.8 0.1-0.1 0.2-0.1 0.2-0.2l14.2-6.9c0.1-0.1 0.3-0.1 0.4-0.1h0.1 0.2c0 0 0.1 0 0.1 0l3.7 0.6c0 0 0.1 0.1 0.1 0.1l4.5 4.9c0.4 0.3 1 0.1 1.2-0.3l1-3.7 4.1 0.6c0.1 0 0.2 0.1 0.3 0.1 0.2 0.1 0.3 0.2 0.5 0.3l9.9 9.9c0 0 0.1 0.1 0.1 0.1h7.1c0.7 0 1.3 0.6 1.3 1.3v3.4c0 0.7-0.6 1.3-1.3 1.3H69c-0.4 0-0.8-0.2-1-0.5L62.2 38l-3.4 15.6 13.3 8.9c0.5 0.3 0.7 1 0.5 1.6L68 84.4z" fill="#000000" data-fill-palette-color="accent"></path><path class="" d="M34.6 52.5c0.2 0.1 0.4 0.3 0.3 0.6l-0.8 2.2c-0.1 0.2-0.3 0.4-0.6 0.3l-9.3-3.4c-0.2-0.1-0.4-0.3-0.3-0.6l0.8-2.2c0.1-0.2 0.3-0.4 0.6-0.3l2.6 1 3.7 1.4L34.6 52.5z" fill="#000000" data-fill-palette-color="accent"></path><path class="" d="M53 74.4c0-0.1 0.1-0.1 0.1-0.2 0 0.1-0.1 0.2-0.2 0.3L53 74.4z" fill="#000000" data-fill-palette-color="accent"></path><path class="" d="M48.2 25.6C48.2 25.6 48.2 25.6 48.2 25.6l-0.2 0C48.1 25.6 48.1 25.6 48.2 25.6z" fill="#000000" data-fill-palette-color="accent"></path><path class="" d="M46.9 57.7l-3.6-2.4c-0.1-0.1-0.2-0.1-0.2-0.2L46.9 57.7z" fill="#000000" data-fill-palette-color="accent"></path><path class="" d="M40.9 59.9c0.5 0.3 0.8 0.9 0.6 1.5l-4.8 13.2c-0.2 0.7-1 1-1.6 0.8l-24.5-8.9c-0.7-0.2-1-1-0.8-1.6l4.8-13.2c0.2-0.7 1-1 1.6-0.8l7.5 2.7 17 6.2C40.8 59.8 40.8 59.9 40.9 59.9z" fill="#000000" data-fill-palette-color="accent"></path></g></g></g></svg></g></svg></g><g><path d="M9.878 68.516c1.818-4.279 4.412-7.555 7.783-9.829v0l4.213 2.991-0.117 0.627c-3.583 1.833-6.158 4.592-7.723 8.277v0c-1.712 4.03-1.64 7.717 0.216 11.06 1.863 3.346 5.464 6.153 10.803 8.422v0c5.388 2.289 9.963 2.956 13.725 1.999 3.762-0.956 6.481-3.407 8.157-7.352v0c0.793-1.867 1.242-3.865 1.346-5.996 0.104-2.131-0.135-4.221-0.717-6.272v0l0.589-0.501 4.647 2.5c0.468 4.556-0.107 8.74-1.727 12.553v0c-2.325 5.473-5.897 8.963-10.717 10.472-4.825 1.506-10.526 0.862-17.101-1.932v0c-6.74-2.863-11.267-6.64-13.582-11.33-2.315-4.69-2.246-9.919 0.205-15.689z" fill="#000000" data-fill-palette-color="accent"></path><path d="M47.359 24.344l39.563 24.836-4.379 3.601-3.612-2.76-6.753-4.294-7.815 6.157-6.811 5.869 2.572 7.374 2.131 4.334-4.273 3.513-15.59-44.547zM61.971 48.212l6.046-5.151-19.416-12.308-0.374 0.307 7.674 21.963z" fill="#000000" data-fill-palette-color="accent"></path><path d="M108.721 25.498c4.126 4.175 9.136 8.66 15.03 13.453v0l0.095 0.688c-1.463 1.015-3.024 1.818-4.684 2.407v0l-0.853-0.293c-4.994-4.63-9.579-9.217-13.753-13.76v0l-7.865 1.891 0.614 2.555 3.502 13.38-5.445 1.31-2.784-13.056-7.576-30.027 13.16-3.236c4.206-1.012 7.721-0.732 10.543 0.838 2.818 1.578 4.701 4.339 5.649 8.282v0c0.711 2.958 0.578 5.797-0.4 8.518-0.984 2.722-2.729 5.072-5.233 7.05zM91.546 7.308l4.113 17.989 8.115-1.739c4.668-2.64 6.373-6.578 5.114-11.815v0c-0.657-2.734-1.887-4.609-3.69-5.625-1.807-1.008-4.2-1.201-7.179-0.58v0z" fill="#000000" data-fill-palette-color="accent"></path><path d="M159.051 43.945l0.218 0.615-1.336 4.095-24.288-5.4 3.233-12.952 6.383-30.303 24.356 5.415 0.15 0.6-1.335 4.094-10.138-2.466-8.602-1.77-3.283 14.134 8.069 1.936 7.19 1.385 0.3 0.563-1.403 4.08-7.52-1.814-7.709-1.643-1.493 6.397-1.793 9.022 8.556 1.973z" fill="#000000" data-fill-palette-color="accent"></path><path d="M188.48 66.211l-0.055 0.65-2.906 3.179-19.899-14.936 8.287-10.465 18.312-24.974 19.955 14.978-0.111 0.608-2.905 3.18-8.218-6.428-7.106-5.16-8.821 11.522 6.553 5.091 5.979 4.228 0.041 0.636-2.961 3.138-6.102-4.753-6.346-4.677-3.998 5.212-5.355 7.48 6.982 5.326z" fill="#000000" data-fill-palette-color="accent"></path><path d="M213.783 86.556c-3.054 5.014-6.193 10.959-9.419 17.837v0l-0.645 0.259c-1.339-1.174-2.495-2.495-3.468-3.963v0l0.078-0.898c3.285-5.966 6.627-11.523 10.026-16.672v0l-3.737-7.175-2.331 1.214-12.136 6.634-2.588-4.967 11.995-5.859 27.304-14.613 6.322 11.987c1.999 3.837 2.578 7.315 1.737 10.433-0.85 3.116-3.073 5.61-6.67 7.485v0c-2.698 1.406-5.486 1.963-8.362 1.672-2.88-0.297-5.581-1.421-8.106-3.374zM227.279 65.493l-16.46 8.34 3.65 7.454c3.69 3.891 7.924 4.593 12.701 2.105v0c2.494-1.299 4.016-2.946 4.566-4.94 0.541-1.997 0.15-4.366-1.174-7.107v0z" fill="#000000" data-fill-palette-color="accent"></path><path d="M60.667 161.525c1.839 4.313 2.409 8.487 1.71 12.522v0l-5.114 0.977-0.375-0.527c1.171-3.885 0.965-7.685-0.618-11.398v0c-1.73-4.059-4.46-6.582-8.188-7.569-3.728-0.988-8.285-0.333-13.67 1.963v0c-5.428 2.314-9.106 5.171-11.035 8.57-1.935 3.402-2.056 7.09-0.362 11.064v0c0.801 1.878 1.94 3.601 3.417 5.169 1.477 1.568 3.162 2.858 5.053 3.869v0l-0.046 0.772-5.061 1.631c-3.633-2.846-6.27-6.193-7.909-10.04v0c-2.348-5.506-2.384-10.537-0.11-15.093 2.268-4.553 6.715-8.243 13.342-11.068v0c6.79-2.895 12.698-3.545 17.723-1.951 5.019 1.597 8.767 5.3 11.243 11.109z" fill="#000000" data-fill-palette-color="accent"></path><path d="M82.006 185.141l-16.811 43.975-4.413-3.622 2.017-4.108 2.923-7.516-7.618-6.522-7.132-5.586-6.781 3.98-3.871 2.957-4.306-3.535 40.983-24.134zM61.267 204.258l6.28 4.975 8.372-21.612-0.381-0.313-20.215 11.892z" fill="#000000" data-fill-palette-color="accent"></path><path d="M109.146 224.625c1.795 5.639 4.242 11.96 7.341 18.961v0l-0.231 0.666c-1.777 0.237-3.545 0.239-5.304 0.006v0l-0.636-0.65c-2.368-6.44-4.386-12.658-6.054-18.653v0l-7.924-1.903-0.618 2.574-2.986 13.616-5.485-1.317 3.476-12.991 6.954-30.431 13.289 3.121c4.245 1.02 7.275 2.882 9.091 5.587 1.809 2.703 2.236 6.043 1.281 10.019v0c-0.715 2.977-2.138 5.463-4.269 7.457-2.126 2.002-4.768 3.314-7.925 3.938zM102.056 200.431l-4.546 18.037 8.077 2.153c5.406-0.232 8.743-2.989 10.012-8.272v0c0.661-2.753 0.415-4.997-0.74-6.73-1.161-1.735-3.222-3.009-6.183-3.822v0z" fill="#000000" data-fill-palette-color="accent"></path><path d="M164.547 231.75l0.46 0.474 0.53 4.304-24.483 5.434-2.576-13.199-7.1-30.397 24.551-5.448 0.39 0.48 0.532 4.313-10.314 2.077-8.611 2.052 3.035 14.312 8.188-1.676 7.168-1.803 0.51 0.382 0.462 4.319-7.647 1.556-7.738 1.788 1.366 6.476 2.21 9 8.655-1.85z" fill="#000000" data-fill-palette-color="accent"></path><path d="M203.412 205.129l0.614 0.243 2.255 3.704-20.076 15.031-7.78-10.968-18.984-24.779 20.131-15.073 0.553 0.277 2.261 3.712-8.545 6.139-7.002 5.415 8.657 11.793 6.772-4.897 5.79-4.595 0.622 0.139 2.2 3.746-6.33 4.566-6.315 4.815 3.911 5.339 5.719 7.292 7.126-5.249z" fill="#000000" data-fill-palette-color="accent"></path><path d="M212.498 164.369c5.906-0.365 12.633-1.197 20.179-2.496v0l0.59 0.386c-0.204 1.781-0.633 3.496-1.288 5.146v0l-0.786 0.458c-6.823 0.726-13.345 1.167-19.566 1.323v0l-3.778 7.22 2.346 1.228 12.477 6.216-2.615 4.997-11.751-6.538-27.816-14.165 6.267-12.127c2.024-3.868 4.569-6.353 7.635-7.454 3.063-1.095 6.406-0.695 10.029 1.201v0c2.713 1.42 4.777 3.406 6.191 5.959 1.423 2.55 2.052 5.432 1.886 8.646zM187.305 165.345l16.384 8.807 4.058-7.308c1.093-5.299-0.767-9.208-5.581-11.727v0c-2.509-1.313-4.745-1.62-6.707-0.923-1.966 0.703-3.704 2.391-5.214 5.064v0z" fill="#000000" data-fill-palette-color="accent"></path><path d="M6.562 125.738c0-9.421 7.637-17.059 17.059-17.059 9.421 0 17.059 7.637 17.059 17.059 0 9.421-7.637 17.059-17.059 17.058-9.421 0-17.059-7.637-17.059-17.058z" fill="#000000" data-fill-palette-color="accent"></path><path d="M203.752 125.738c0-9.421 7.637-17.059 17.059-17.059 9.421 0 17.059 7.637 17.058 17.059 0 9.421-7.637 17.059-17.058 17.058-9.421 0-17.059-7.637-17.059-17.058z" fill="#000000" data-fill-palette-color="accent"></path></g></svg></g></svg></g><g></g></svg></g></svg></g><defs></defs></svg><rect width="217.87099106804433" height="247.2" fill="none" stroke="none" visibility="hidden"></rect></g></svg></g></svg>